HIERARCHY
ROOT reference
{
  OFFSET 0 0 0
  CHANNELS 6 Xposition Yposition Zposition Zrotation Xrotation Yrotation
  JOINT Hips
  {
    OFFSET 350.331 86.7696 215.823
    CHANNELS 3 Zrotation Xrotation Yrotation
    JOINT RightUpLeg
    {
      OFFSET -9.29271 -1.56052 -0.0234997
      CHANNELS 3 Zrotation Xrotation Yrotation
      JOINT RightLeg
      {
        OFFSET -0.0199852 -41.8973 0.0465042
        CHANNELS 3 Zrotation Xrotation Yrotation
        JOINT RightFoot
        {
          OFFSET -0.344404 -43.5008 0.46033
          CHANNELS 3 Zrotation Xrotation Yrotation
          End Site
          {
            OFFSET 0 -7.69 17.5
          }
        }
      }
    }
    JOINT LeftUpLeg
    {
      OFFSET 9.27671 -1.61046 0.00923455
      CHANNELS 3 Zrotation Xrotation Yrotation
      JOINT LeftLeg
      {
        OFFSET 0.0572944 -41.8832 0.025786
        CHANNELS 3 Zrotation Xrotation Yrotation
        JOINT LeftFoot
        {
          OFFSET 0.630082 -40.4663 0.064708
          CHANNELS 3 Zrotation Xrotation Yrotation
          End Site
          {
            OFFSET 0 -7.69 17.5
          }
        }
      }
    }
    JOINT Spine
    {
      OFFSET 0.0336257 14.3009 0.0467062
      CHANNELS 3 Zrotation Xrotation Yrotation
      JOINT Spine1
      {
        OFFSET 0.0295985 9.72711 0.0239471
        CHANNELS 3 Zrotation Xrotation Yrotation
        JOINT Spine2
        {
          OFFSET 0.0515174 10.1206 0.00128176
          CHANNELS 3 Zrotation Xrotation Yrotation
          JOINT Spine3
          {
            OFFSET 0.0546141 9.71668 0.0122483
            CHANNELS 3 Zrotation Xrotation Yrotation
            JOINT Neck
            {
              OFFSET 0.0872189 10.3831 0.0511468
              CHANNELS 3 Zrotation Xrotation Yrotation
              JOINT Head
              {
                OFFSET 0.0544 9.47189 0.0313815
                CHANNELS 3 Zrotation Xrotation Yrotation
                End Site
                {
                  OFFSET 0 15.95 0
                }
              }
            }
            JOINT RightShoulder
            {
              OFFSET -3.15364 6.93551 0.0260198
              CHANNELS 3 Zrotation Xrotation Yrotation
              JOINT RightArm
              {
                OFFSET -12.7567 0.0626665 0.0664987
                CHANNELS 3 Zrotation Xrotation Yrotation
                JOINT RightForeArm
                {
                  OFFSET -26.5087 -0.073346 0.274032
                  CHANNELS 3 Zrotation Xrotation Yrotation
                  JOINT RightHand
                  {
                    OFFSET -26.0005 -0.196673 0.105827
                    CHANNELS 3 Zrotation Xrotation Yrotation
                    JOINT RightHandThumb1
                    {
                      OFFSET -2.48905 0.190105 3.12053
                      CHANNELS 3 Zrotation Xrotation Yrotation
                      JOINT RightHandThumb2
                      {
                        OFFSET -3.68274 0 0
                        CHANNELS 3 Zrotation Xrotation Yrotation
                        JOINT RightHandThumb3
                        {
                          OFFSET -2.55832 0 0
                          CHANNELS 3 Zrotation Xrotation Yrotation
                          End Site
                          {
                            OFFSET -2.194 0 0
                          }
                        }
                      }
                    }
                    JOINT RightInHandIndex
                    {
                      OFFSET -3.22368 0.508421 1.97842
                      CHANNELS 3 Zrotation Xrotation Yrotation
                      JOINT RightHandIndex1
                      {
                        OFFSET -5.21684 -0.091368 0.999158
                        CHANNELS 3 Zrotation Xrotation Yrotation
                        JOINT RightHandIndex2
                        {
                          OFFSET -3.61937 0 0
                          CHANNELS 3 Zrotation Xrotation Yrotation
                          JOINT RightHandIndex3
                          {
                            OFFSET -2.0521 0 0
                            CHANNELS 3 Zrotation Xrotation Yrotation
                            End Site
                            {
                              OFFSET -1.805 0 0
                            }
                          }
                        }
                      }
                    }
                    JOINT RightInHandMiddle
                    {
                      OFFSET -3.38211 0.517263 0.756737
                      CHANNELS 3 Zrotation Xrotation Yrotation
                      JOINT RightHandMiddle1
                      {
                        OFFSET -5.17411 -0.084 0.313895
                        CHANNELS 3 Zrotation Xrotation Yrotation
                        JOINT RightHandMiddle2
                        {
                          OFFSET -3.94947 0 0
                          CHANNELS 3 Zrotation Xrotation Yrotation
                          JOINT RightHandMiddle3
                          {
                            OFFSET -2.47579 0 0
                            CHANNELS 3 Zrotation Xrotation Yrotation
                            End Site
                            {
                              OFFSET -1.975 0 0
                            }
                          }
                        }
                      }
                    }
                    JOINT RightInHandRing
                    {
                      OFFSET -3.36516 0.537895 -0.128947
                      CHANNELS 3 Zrotation Xrotation Yrotation
                      JOINT RightHandRing1
                      {
                        OFFSET -4.63474 -0.022105 -0.478947
                        CHANNELS 3 Zrotation Xrotation Yrotation
                        JOINT RightHandRing2
                        {
                          OFFSET -3.44238 0 0
                          CHANNELS 3 Zrotation Xrotation Yrotation
                          JOINT RightHandRing3
                          {
                            OFFSET -2.3881 0 0
                            CHANNELS 3 Zrotation Xrotation Yrotation
                            End Site
                            {
                              OFFSET -1.857 0 0
                            }
                          }
                        }
                      }
                    }
                    JOINT RightInHandPinky
                    {
                      OFFSET -3.16105 0.469368 -1.20179
                      CHANNELS 3 Zrotation Xrotation Yrotation
                      JOINT RightHandPinky1
                      {
                        OFFSET -4.14105 -0.022105 -1.09053
                        CHANNELS 3 Zrotation Xrotation Yrotation
                        JOINT RightHandPinky2
                        {
                          OFFSET -2.75653 0 0
                          CHANNELS 3 Zrotation Xrotation Yrotation
                          JOINT RightHandPinky3
                          {
                            OFFSET -1.74189 0 0
                            CHANNELS 3 Zrotation Xrotation Yrotation
                            End Site
                            {
                              OFFSET -1.645 0 0
                            }
                          }
                        }
                      }
                    }
                  }
                }
              }
            }
            JOINT LeftShoulder
            {
              OFFSET 3.27252 6.91581 -0.0198585
              CHANNELS 3 Zrotation Xrotation Yrotation
              JOINT LeftArm
              {
                OFFSET 12.8319 -0.0466028 -0.0574599
                CHANNELS 3 Zrotation Xrotation Yrotation
                JOINT LeftForeArm
                {
                  OFFSET 26.4942 -0.039105 -0.0936
                  CHANNELS 3 Zrotation Xrotation Yrotation
                  JOINT LeftHand
                  {
                    OFFSET 26.0008 0.022674 -0.016655
                    CHANNELS 3 Zrotation Xrotation Yrotation
                    JOINT LeftHandThumb1
                    {
                      OFFSET 2.48905 0.190105 3.12053
                      CHANNELS 3 Zrotation Xrotation Yrotation
                      JOINT LeftHandThumb2
                      {
                        OFFSET 3.68274 0 0
                        CHANNELS 3 Zrotation Xrotation Yrotation
                        JOINT LeftHandThumb3
                        {
                          OFFSET 2.55832 0 0
                          CHANNELS 3 Zrotation Xrotation Yrotation
                          End Site
                          {
                            OFFSET 2.194 0 0
                          }
                        }
                      }
                    }
                    JOINT LeftInHandIndex
                    {
                      OFFSET 3.22368 0.508421 1.97842
                      CHANNELS 3 Zrotation Xrotation Yrotation
                      JOINT LeftHandIndex1
                      {
                        OFFSET 5.21684 -0.091368 0.999158
                        CHANNELS 3 Zrotation Xrotation Yrotation
                        JOINT LeftHandIndex2
                        {
                          OFFSET 3.61937 0 0
                          CHANNELS 3 Zrotation Xrotation Yrotation
                          JOINT LeftHandIndex3
                          {
                            OFFSET 2.0521 0 0
                            CHANNELS 3 Zrotation Xrotation Yrotation
                            End Site
                            {
                              OFFSET 1.805 0 0
                            }
                          }
                        }
                      }
                    }
                    JOINT LeftInHandMiddle
                    {
                      OFFSET 3.38211 0.517263 0.756737
                      CHANNELS 3 Zrotation Xrotation Yrotation
                      JOINT LeftHandMiddle1
                      {
                        OFFSET 5.17411 -0.084 0.313895
                        CHANNELS 3 Zrotation Xrotation Yrotation
                        JOINT LeftHandMiddle2
                        {
                          OFFSET 3.94947 0 0
                          CHANNELS 3 Zrotation Xrotation Yrotation
                          JOINT LeftHandMiddle3
                          {
                            OFFSET 2.47579 0 0
                            CHANNELS 3 Zrotation Xrotation Yrotation
                            End Site
                            {
                              OFFSET 1.975 0 0
                            }
                          }
                        }
                      }
                    }
                    JOINT LeftInHandRing
                    {
                      OFFSET 3.36516 0.537895 -0.128947
                      CHANNELS 3 Zrotation Xrotation Yrotation
                      JOINT LeftHandRing1
                      {
                        OFFSET 4.63474 -0.022105 -0.478947
                        CHANNELS 3 Zrotation Xrotation Yrotation
                        JOINT LeftHandRing2
                        {
                          OFFSET 3.44238 0 0
                          CHANNELS 3 Zrotation Xrotation Yrotation
                          JOINT LeftHandRing3
                          {
                            OFFSET 2.3881 0 0
                            CHANNELS 3 Zrotation Xrotation Yrotation
                            End Site
                            {
                              OFFSET 1.857 0 0
                            }
                          }
                        }
                      }
                    }
                    JOINT LeftInHandPinky
                    {
                      OFFSET 3.16105 0.469368 -1.20179
                      CHANNELS 3 Zrotation Xrotation Yrotation
                      JOINT LeftHandPinky1
                      {
                        OFFSET 4.14105 -0.022105 -1.09053
                        CHANNELS 3 Zrotation Xrotation Yrotation
                        JOINT LeftHandPinky2
                        {
                          OFFSET 2.75653 0 0
                          CHANNELS 3 Zrotation Xrotation Yrotation
                          JOINT LeftHandPinky3
                          {
                            OFFSET 1.74189 0 0
                            CHANNELS 3 Zrotation Xrotation Yrotation
                            End Site
                            {
                              OFFSET 1.645 0 0
                            }
                          }
                        }
                      }
                    }
                  }
                }
              }
            }
          }
        }
      }
    }
  }
}
MOTION
Frames: 2
Frame Time: 0.00833333
6.000000000000000000e+02 0.000000000000000000e+00 0.000000000000000000e+00 0.000000000000000000e+00 0.000000000000000000e+00 0.000000000000000000e+00 7.189254900619063138e-02 -3.672051109081821529e+00 -2.778215021655797479e+00 -1.257156314345271753e+00 3.528168398853776644e+00 1.481546364571625141e+00 1.153698754005072907e-01 -3.000823644527807588e+00 1.559967785557594855e+00 5.525580419868580950e-01 1.440374885543144190e+00 1.100290641181811413e-01 5.140373495742464049e-01 3.548115145734060949e+00 1.454475759330177143e+00 -2.832836420970688440e+00 -2.058404543854645663e+00 1.075394431231639469e+00 1.836463523687944965e+00 5.576693388903294357e-01 2.948566140027245819e+00 -2.212908835915358363e+00 1.409649267816902807e+00 1.549734503052982326e+00 -4.010901442030975761e-01 3.387066447333189623e-01 3.216774680969009537e-01 -6.853592050300176819e-01 4.832213156512017438e-01 8.319220077116304957e-01 7.535937772088432962e-02 2.599192060013137684e-02 -2.375681456627485866e-01 3.786285499521385711e-01 3.427916896843677397e-01 1.469199983130547560e+00 1.822439703048974735e+00 -5.568370246367959631e-01 -4.993189321479158060e+00 -1.347422599325075021e+00 1.551382843536615264e+00 7.822315435963129726e-01 -9.231051925157126803e+00 -2.103127591055417245e+00 2.241016004441562348e+00 1.573001376137129537e+00 7.852862528752641680e+00 -2.606456343934068087e+01 7.445551889498815135e-02 3.319973645557038999e+00 -1.240995441160792545e+01 0.000000000000000000e+00 0.000000000000000000e+00 0.000000000000000000e+00 -1.452351375384048621e-15 2.022040660185503695e-15 0.000000000000000000e+00 -4.118588023528301979e-15 -4.133308762200735293e-15 0.000000000000000000e+00 5.565914809874776097e-16 -3.199799515848413334e-15 2.427953764397436538e-15 0.000000000000000000e+00 0.000000000000000000e+00 0.000000000000000000e+00 0.000000000000000000e+00 -3.115936791641747328e-16 -3.683720628274349924e-15 0.000000000000000000e+00 -3.765841978341854719e-16 2.163815278781230202e-16 5.565914809874776097e-16 -3.199799515848413334e-15 2.427953764397436538e-15 0.000000000000000000e+00 1.355789620228338113e-15 -4.429280001590744387e-16 0.000000000000000000e+00 2.298292775142043885e-15 -6.329896398323823642e-16 0.000000000000000000e+00 1.691709303074900488e-15 1.649450295402684262e-15 5.565914809874776097e-16 -3.199799515848413334e-15 2.427953764397436538e-15 0.000000000000000000e+00 0.000000000000000000e+00 0.000000000000000000e+00 0.000000000000000000e+00 1.599175844755454148e-15 1.248428427251354930e-15 0.000000000000000000e+00 1.323423752367890876e-16 1.557497538930414082e-15 5.565914809874776097e-16 -3.199799515848413334e-15 2.427953764397436538e-15 0.000000000000000000e+00 0.000000000000000000e+00 0.000000000000000000e+00 0.000000000000000000e+00 6.961074022246317907e-16 5.984799644610697742e-16 0.000000000000000000e+00 2.418407632724927337e-15 -5.343026078918515170e-16 1.575152043122379553e+00 -3.262498483525882342e+00 2.591426967342303489e-01 -9.052754688065803634e+00 3.822107517582431502e+00 8.312912989112234641e+00 -4.384025284254374100e+01 -1.474705887216675926e+01 -3.667702721607858507e+01 3.895287253742424127e+00 -8.613188011200934024e-01 -4.033643067006353000e+00 0.000000000000000000e+00 0.000000000000000000e+00 0.000000000000000000e+00 -6.435079540144601476e-16 3.722596601776981374e-16 0.000000000000000000e+00 8.600051194703763768e-16 -2.228877482942239862e-15 0.000000000000000000e+00 -7.235347629176535073e-16 -5.051972363616512603e-15 7.578971575750016095e-16 0.000000000000000000e+00 0.000000000000000000e+00 0.000000000000000000e+00 0.000000000000000000e+00 4.189888754203407625e-15 -2.776526915888922329e-15 0.000000000000000000e+00 -2.370347959101908210e-15 -2.059492034892128293e-15 -7.235347629176535073e-16 -5.051972363616512603e-15 7.578971575750016095e-16 0.000000000000000000e+00 -3.788183415329687981e-15 2.228985404088748110e-15 0.000000000000000000e+00 1.339415177456633418e-15 -1.747748471932108431e-15 0.000000000000000000e+00 -1.746908183774983375e-16 -6.071678192993200587e-15 -7.235347629176535073e-16 -5.051972363616512603e-15 7.578971575750016095e-16 0.000000000000000000e+00 0.000000000000000000e+00 0.000000000000000000e+00 0.000000000000000000e+00 -6.038364840306526583e-16 -3.405043353003861232e-16 0.000000000000000000e+00 3.098577660927351728e-15 -9.748369287398974932e-16 -7.235347629176535073e-16 -5.051972363616512603e-15 7.578971575750016095e-16 0.000000000000000000e+00 0.000000000000000000e+00 0.000000000000000000e+00 0.000000000000000000e+00 -1.079574188285160895e-15 -1.090640665986589076e-15 0.000000000000000000e+00 1.816104832422094054e-15 -1.457702749180866655e-15
6.000000000000000000e+02 0.000000000000000000e+00 0.000000000000000000e+00 0.000000000000000000e+00 0.000000000000000000e+00 0.000000000000000000e+00 1.799606148821205065e-01 -3.826407573604742041e+00 -3.319736916808254001e+00 -9.039692536506860332e-01 3.601841344312506799e+00 1.917872299527715763e+00 3.090357331674305555e-02 -3.140290095199297138e+00 1.658929070419391083e+00 5.525205996203406134e-01 1.562094752799564112e+00 2.871654961437472564e-01 7.193651842838835186e-01 3.907731816160068483e+00 1.772971076987853500e+00 -3.054986458097991076e+00 -1.999302789600384767e+00 1.246444546641404916e+00 1.933860498308580533e+00 4.300609836413977760e-01 3.153340527527918713e+00 -2.315438357964417548e+00 1.336005860147733815e+00 1.715419923912200106e+00 -4.247456541435950528e-01 3.239767776868432980e-01 3.623756260731831325e-01 -7.250349186711732008e-01 4.581483277685569622e-01 8.968986805009182550e-01 7.354115443330982993e-02 2.741274039970523213e-02 -2.254143551661648703e-01 3.811519089087872514e-01 3.577169570172872848e-01 1.394947932815298497e+00 1.761919038193604070e+00 -5.039837012301032759e-01 -4.695385851540028632e+00 -1.346630237423683596e+00 1.626092374357214432e+00 7.710351369837669111e-01 -9.583781558853699423e+00 -2.344452417103734643e+00 2.501287803646338403e+00 1.312336159237713851e+00 8.069250134661720253e+00 -2.605445810839016474e+01 1.909328534871181926e-01 3.645009899804568132e+00 -1.254261452043632374e+01 0.000000000000000000e+00 0.000000000000000000e+00 0.000000000000000000e+00 -1.061910509161322962e-15 2.362428541753666860e-15 0.000000000000000000e+00 -3.890962301126577783e-15 -4.300274884557911965e-15 0.000000000000000000e+00 8.868229983856721188e-16 -3.035916957368507134e-15 2.526691873987128335e-15 0.000000000000000000e+00 0.000000000000000000e+00 0.000000000000000000e+00 0.000000000000000000e+00 -5.522616412073240301e-16 -3.507757826575018803e-15 0.000000000000000000e+00 -2.724371817409325567e-16 2.599957655855797899e-16 8.868229983856721188e-16 -3.035916957368507134e-15 2.526691873987128335e-15 0.000000000000000000e+00 1.537438325541973964e-15 -4.707421879243938883e-16 0.000000000000000000e+00 2.555170958610319248e-15 -6.304452898990252904e-16 0.000000000000000000e+00 1.765881445321282879e-15 1.798646721633947821e-15 8.868229983856721188e-16 -3.035916957368507134e-15 2.526691873987128335e-15 0.000000000000000000e+00 0.000000000000000000e+00 0.000000000000000000e+00 0.000000000000000000e+00 1.503936326529883126e-15 1.413361499837244072e-15 0.000000000000000000e+00 -1.228582368364098223e-17 2.112160237065788422e-15 8.868229983856721188e-16 -3.035916957368507134e-15 2.526691873987128335e-15 0.000000000000000000e+00 0.000000000000000000e+00 0.000000000000000000e+00 0.000000000000000000e+00 7.183957490839564492e-16 8.006661445235922620e-16 0.000000000000000000e+00 2.517333637124847691e-15 -5.578576395595114969e-16 1.465705286027372489e+00 -3.321329922278494440e+00 1.581941075730511348e-01 -9.186802608809035320e+00 3.853793677111426952e+00 8.325524706144603826e+00 -4.394683183230799983e+01 -1.495718109887918601e+01 -3.738118523819524341e+01 3.939109889529714970e+00 -8.177369684689173024e-01 -4.284078574850010313e+00 0.000000000000000000e+00 0.000000000000000000e+00 0.000000000000000000e+00 -4.829516018772964687e-16 7.610388108228292107e-16 0.000000000000000000e+00 8.053814486368397956e-16 -2.572545376546669886e-15 0.000000000000000000e+00 -7.560267672992737221e-16 -5.197995788513112787e-15 8.203586415916044123e-16 0.000000000000000000e+00 0.000000000000000000e+00 0.000000000000000000e+00 0.000000000000000000e+00 4.334826318468545026e-15 -2.782469713008273418e-15 0.000000000000000000e+00 -2.263631178290942166e-15 -1.862093269867268684e-15 -7.560267672992737221e-16 -5.197995788513112787e-15 8.203586415916044123e-16 0.000000000000000000e+00 -3.937595177993727143e-15 2.041473264335212541e-15 0.000000000000000000e+00 1.305268343543327426e-15 -1.965491217127977233e-15 0.000000000000000000e+00 1.992730426101649443e-16 -6.572715347863511531e-15 -7.560267672992737221e-16 -5.197995788513112787e-15 8.203586415916044123e-16 0.000000000000000000e+00 0.000000000000000000e+00 0.000000000000000000e+00 0.000000000000000000e+00 -5.003051956165616690e-16 -2.415217417125361278e-16 0.000000000000000000e+00 3.189608729421275475e-15 -1.050433360970033243e-15 -7.560267672992737221e-16 -5.197995788513112787e-15 8.203586415916044123e-16 0.000000000000000000e+00 0.000000000000000000e+00 0.000000000000000000e+00 0.000000000000000000e+00 -1.204895940420062177e-15 -1.101834392290685616e-15 0.000000000000000000e+00 1.945769061489218553e-15 -1.441673556413986005e-15
